<svg width="96" height="96" viewBox="0 0 96 96" fill="none" xmlns="http://www.w3.org/2000/svg">
<g clip-path="url(#clip0_8_12)">
<path d="M12.4096 48.039C13.0457 47.8852 13.8315 47.9099 14.7668 48.1131C15.6302 48.3006 16.5353 48.6432 17.482 49.1409C18.4489 49.5456 19.3496 50.0819 20.184 50.7498C21.0385 51.3247 21.6672 51.8993 22.0699 52.4734C22.4726 53.0475 22.7472 53.6912 22.8936 54.4043C23.0401 55.1174 23.1045 55.8614 23.0869 56.6363C22.9973 57.3955 22.9078 58.1547 22.8182 58.9139C22.6769 59.5645 22.5299 60.0679 22.3772 60.424C22.1841 60.9661 21.7291 61.4999 21.0121 62.0255C20.2952 62.5511 19.4906 62.9603 18.5982 63.2531C17.654 63.4374 16.6581 63.513 15.6104 63.4801C14.5628 63.4472 13.6375 63.1976 12.8347 62.7312C12.0319 62.2648 11.4121 61.3028 10.9752 59.8453C10.5586 58.2948 10.342 56.6905 10.3255 55.0322C10.3089 53.374 10.4881 51.8556 10.8629 50.477C11.1657 49.0828 11.6813 48.2702 12.4096 48.039ZM43.4311 55.0694C43.9953 54.9 44.7451 54.9169 45.6804 55.12C46.5438 55.3076 47.4129 55.6424 48.2877 56.1244C49.1826 56.5134 50.0473 57.0419 50.8817 57.7098C51.6643 58.2692 52.257 58.8359 52.6597 59.41C53.0106 59.8756 53.2593 60.4649 53.4058 61.1781C53.5523 61.8912 53.6167 62.6352 53.5991 63.41C53.5297 64.0763 53.4243 64.7347 53.283 65.3853C53.1417 66.036 53.0307 66.5472 52.9499 66.9189C52.7568 67.461 52.3378 68.0026 51.6928 68.5439C50.9961 68.9765 50.2015 69.3392 49.3091 69.6321C48.365 69.8163 47.405 69.8998 46.4293 69.8825C45.4536 69.8652 44.6003 69.6312 43.8694 69.1805C43.0666 68.7141 42.4828 67.7599 42.1179 66.318C41.681 64.8605 41.4443 63.3491 41.4075 61.7838C41.391 60.1256 41.5601 58.6536 41.9147 57.368C42.1973 56.0668 42.7028 55.3006 43.4311 55.0694ZM40.6922 39.5827C40.7351 40.0787 40.5604 41.4034 40.168 43.5568C39.7756 45.7102 39.2564 48.274 38.6103 51.2483C37.9642 54.2226 37.2317 57.4214 36.4128 60.8448C35.542 64.1596 34.7477 67.2964 34.0296 70.255C33.2599 73.1051 32.5709 75.5834 31.9626 77.6899C31.3026 79.6879 30.8243 80.8493 30.5277 81.1742C29.7098 82.1645 28.7972 82.5503 27.7899 82.3315C26.7309 82.0041 25.9337 81.6849 25.3985 81.374C25.2029 81.2342 25.163 80.2035 25.279 78.2821C25.3433 76.2521 25.5703 73.8194 25.9601 70.9842C26.2982 68.0403 26.7127 64.9184 27.2034 61.6184C27.6425 58.2098 28.1131 55.0027 28.6152 51.9972C29.1376 48.8987 29.641 46.2341 30.1256 44.0034C30.5584 41.6641 30.9174 40.1848 31.2026 39.5654C31.5686 38.5742 32.2438 37.8936 33.2284 37.5235C34.2331 37.0604 35.2953 36.8531 36.4149 36.9017C37.4827 36.8416 38.4541 37.0526 39.3288 37.5346C40.1316 38.001 40.5861 38.6837 40.6922 39.5827Z" fill="black"/>
<path d="M83.5844 38.2449C84.3386 39.0559 84.6819 40.0346 84.6145 41.1812C84.6281 42.3829 84.3927 43.5145 83.9081 44.5762C83.5048 45.693 82.881 46.6102 82.0368 47.3279C81.1926 48.0456 80.3129 48.292 79.3976 48.067C78.737 47.8165 77.1661 46.8973 74.685 45.3093C72.2038 43.7214 69.4036 41.8171 66.2844 39.5965C64.0078 42.4205 61.9854 44.8708 60.2171 46.9474C58.495 48.956 57.3561 50.0198 56.8004 50.1388C55.423 50.5932 53.9751 50.4532 52.4567 49.7187C51.0194 49.0394 50.0629 48.4386 49.5872 47.9163C49.3437 47.7508 49.3543 47.2115 49.6191 46.2985C49.9301 45.3175 50.3797 44.1328 50.9679 42.7442C51.6023 41.2876 52.3522 39.6612 53.2177 37.865C54.1643 36.1239 55.1571 34.3149 56.1962 32.4379C52.9146 30.1069 50.0445 27.9563 47.5858 25.9862C45.1271 24.0161 43.8104 22.7232 43.6356 22.1075C43.2872 21.5724 43.1299 21.0183 43.1637 20.445C43.2786 19.927 43.4341 19.4365 43.6301 18.9737C43.9536 18.498 44.2945 18.084 44.6529 17.7315C45.0575 17.3111 45.3928 16.9926 45.6588 16.776C46.0522 16.5467 47.6805 17.2069 50.5438 18.7566C53.5344 20.2935 56.9715 22.1341 60.8549 24.2782C62.4484 21.5859 63.9152 19.2545 65.2552 17.2841C66.5951 15.3137 67.5311 14.1119 68.0631 13.6788C68.8611 13.029 69.9955 12.7572 71.4665 12.8632C72.9375 12.9693 74.3973 13.2664 75.8458 13.7546C77.3755 14.298 78.6448 14.9625 79.6537 15.748C80.7901 16.5208 81.3357 17.2893 81.2907 18.0537C81.1758 18.5717 80.2636 20.0877 78.5539 22.6017C76.9717 25.1029 74.9904 27.929 72.6102 31.08C75.2999 32.7104 77.6418 34.154 79.636 35.4107C81.7113 36.7227 83.0275 37.6674 83.5844 38.2449Z" fill="black"/>
</g>
<defs>
<clipPath id="clip0_8_12">
<rect width="96" height="96" fill="white"/>
</clipPath>
</defs>
</svg>
