<svg width="75" height="71" viewBox="0 0 75 71" fill="none" xmlns="http://www.w3.org/2000/svg">
<g clip-path="url(#clip0_8_41)">
<path d="M2.40958 36.039C3.04574 35.8852 3.83149 35.9099 4.76683 36.1131C5.63022 36.3006 6.53528 36.6432 7.482 37.1409C8.44891 37.5456 9.34956 38.0819 10.184 38.7498C11.0385 39.3247 11.6672 39.8993 12.0699 40.4734C12.4726 41.0475 12.7472 41.6912 12.8936 42.4043C13.0401 43.1174 13.1045 43.8614 13.0869 44.6363C12.9973 45.3955 12.9078 46.1547 12.8182 46.9139C12.6769 47.5645 12.5299 48.0679 12.3772 48.424C12.1841 48.9661 11.7291 49.4999 11.0121 50.0255C10.2952 50.5511 9.49056 50.9603 8.59817 51.2531C7.65402 51.4374 6.65812 51.513 5.61045 51.4801C4.56278 51.4472 3.63753 51.1976 2.83471 50.7312C2.03189 50.2648 1.41206 49.3028 0.975217 47.8453C0.558568 46.2948 0.341981 44.6905 0.325457 43.0322C0.308933 41.374 0.488067 39.8556 0.862859 38.477C1.1657 37.0828 1.68127 36.2702 2.40958 36.039ZM33.4311 43.0694C33.9953 42.9 34.7451 42.9169 35.6804 43.12C36.5438 43.3076 37.4129 43.6424 38.2877 44.1244C39.1826 44.5134 40.0473 45.0419 40.8817 45.7098C41.6643 46.2692 42.257 46.8359 42.6597 47.41C43.0106 47.8756 43.2593 48.4649 43.4058 49.1781C43.5523 49.8912 43.6167 50.6352 43.5991 51.41C43.5297 52.0763 43.4243 52.7347 43.283 53.3853C43.1417 54.036 43.0307 54.5472 42.9499 54.9189C42.7568 55.461 42.3378 56.0026 41.6928 56.5439C40.9961 56.9765 40.2015 57.3392 39.3091 57.6321C38.365 57.8163 37.405 57.8998 36.4293 57.8825C35.4536 57.8652 34.6003 57.6312 33.8694 57.1805C33.0666 56.7141 32.4828 55.7599 32.1179 54.318C31.681 52.8605 31.4443 51.3491 31.4075 49.7838C31.391 48.1256 31.5601 46.6536 31.9147 45.368C32.1973 44.0668 32.7028 43.3006 33.4311 43.0694ZM30.6922 27.5827C30.7351 28.0787 30.5604 29.4034 30.168 31.5568C29.7756 33.7102 29.2564 36.274 28.6103 39.2483C27.9642 42.2226 27.2317 45.4214 26.4128 48.8448C25.542 52.1596 24.7477 55.2964 24.0296 58.255C23.2599 61.1051 22.5709 63.5834 21.9626 65.6899C21.3026 67.6879 20.8243 68.8493 20.5277 69.1742C19.7098 70.1645 18.7972 70.5503 17.7899 70.3315C16.7309 70.0041 15.9337 69.6849 15.3985 69.374C15.2029 69.2342 15.163 68.2035 15.279 66.2821C15.3433 64.2521 15.5703 61.8194 15.9601 58.9842C16.2982 56.0403 16.7127 52.9184 17.2034 49.6184C17.6425 46.2098 18.1131 43.0027 18.6152 39.9972C19.1376 36.8987 19.641 34.2341 20.1256 32.0034C20.5584 29.6641 20.9174 28.1848 21.2026 27.5654C21.5686 26.5742 22.2438 25.8936 23.2284 25.5235C24.2331 25.0604 25.2953 24.8531 26.4149 24.9017C27.4827 24.8416 28.4541 25.0526 29.3288 25.5346C30.1316 26.001 30.5861 26.6837 30.6922 27.5827Z" fill="white"/>
<path d="M73.5844 26.2449C74.3386 27.0559 74.6819 28.0346 74.6145 29.1812C74.6281 30.3829 74.3927 31.5145 73.9081 32.5762C73.5048 33.693 72.881 34.6102 72.0368 35.3279C71.1926 36.0456 70.3129 36.292 69.3976 36.067C68.737 35.8165 67.1661 34.8973 64.685 33.3093C62.2038 31.7214 59.4036 29.8171 56.2844 27.5965C54.0078 30.4205 51.9854 32.8708 50.2171 34.9474C48.495 36.956 47.3561 38.0198 46.8004 38.1388C45.423 38.5932 43.9751 38.4532 42.4567 37.7187C41.0194 37.0394 40.0629 36.4386 39.5872 35.9163C39.3437 35.7508 39.3543 35.2115 39.6191 34.2985C39.9301 33.3175 40.3797 32.1328 40.9679 30.7442C41.6023 29.2876 42.3522 27.6612 43.2177 25.865C44.1643 24.1239 45.1571 22.3149 46.1962 20.4379C42.9146 18.1069 40.0445 15.9563 37.5858 13.9862C35.1271 12.0161 33.8104 10.7232 33.6356 10.1075C33.2872 9.57244 33.1299 9.01831 33.1637 8.44505C33.2786 7.92698 33.4341 7.43652 33.6301 6.97365C33.9536 6.49804 34.2945 6.08399 34.6529 5.73152C35.0575 5.3111 35.3928 4.9926 35.6588 4.77601C36.0522 4.54668 37.6805 5.20687 40.5438 6.75658C43.5344 8.29353 46.9715 10.1341 50.8549 12.2782C52.4484 9.58589 53.9152 7.25453 55.2552 5.28413C56.5951 3.31372 57.5311 2.11194 58.0631 1.67877C58.8611 1.02902 59.9955 0.757167 61.4665 0.863217C62.9375 0.969267 64.3973 1.2664 65.8458 1.75463C67.3755 2.29805 68.6448 2.96251 69.6537 3.74801C70.7901 4.52076 71.3357 5.28931 71.2907 6.05366C71.1758 6.57172 70.2636 8.08773 68.5539 10.6017C66.9717 13.1029 64.9904 15.929 62.6102 19.08C65.2999 20.7104 67.6418 22.154 69.636 23.4107C71.7113 24.7227 73.0275 25.6674 73.5844 26.2449Z" fill="white"/>
</g>
<defs>
<clipPath id="clip0_8_41">
<rect width="75" height="71" fill="white"/>
</clipPath>
</defs>
</svg>
